<svg width="423" height="654" viewBox="0 0 423 654" fill="none" xmlns="http://www.w3.org/2000/svg">
<mask id="mask0_352_131" style="mask-type:luminance" maskUnits="userSpaceOnUse" x="210" y="288" width="50" height="86">
<path d="M210.53 288.652H259.581V373.127H210.53V288.652Z" fill="white"/>
</mask>
<g mask="url(#mask0_352_131)">
<path d="M258.941 289.266C258.941 288.993 259.087 288.775 259.263 288.775C259.439 288.775 259.58 288.993 259.58 289.266C259.58 289.538 259.439 289.763 259.263 289.763C259.087 289.763 258.941 289.538 258.941 289.266ZM258.941 292.727C258.941 292.454 259.087 292.236 259.263 292.236C259.439 292.236 259.58 292.454 259.58 292.727C259.58 292.999 259.439 293.224 259.263 293.224C259.087 293.224 258.941 292.999 258.941 292.727ZM259.254 296.678C259.074 296.671 258.933 296.446 258.937 296.174C258.941 295.901 259.082 295.683 259.259 295.69C259.439 295.697 259.58 295.922 259.576 296.194C259.572 296.46 259.426 296.678 259.254 296.678ZM259.153 300.132C258.977 300.118 258.845 299.88 258.853 299.607C258.862 299.335 259.016 299.13 259.193 299.144C259.369 299.158 259.501 299.396 259.492 299.669C259.483 299.927 259.338 300.132 259.171 300.132C259.166 300.132 259.162 300.132 259.153 300.132ZM258.955 303.572C258.778 303.545 258.651 303.306 258.673 303.034C258.69 302.761 258.845 302.564 259.021 302.591C259.197 302.625 259.325 302.864 259.307 303.136C259.29 303.388 259.153 303.572 258.986 303.572C258.977 303.572 258.963 303.572 258.955 303.572ZM258.659 306.999C258.483 306.958 258.364 306.706 258.391 306.44C258.417 306.168 258.58 305.977 258.752 306.025C258.928 306.066 259.047 306.318 259.021 306.583C258.999 306.829 258.862 307.006 258.708 307.006C258.69 307.006 258.673 307.006 258.659 306.999ZM258.263 310.405C258.091 310.351 257.976 310.092 258.012 309.826C258.047 309.56 258.21 309.383 258.382 309.431C258.558 309.485 258.673 309.744 258.637 310.01C258.607 310.248 258.474 310.412 258.32 310.412C258.303 310.412 258.281 310.405 258.263 310.405ZM257.765 313.77C257.598 313.709 257.492 313.437 257.531 313.178V313.171C257.576 312.912 257.747 312.749 257.919 312.81C258.091 312.878 258.197 313.144 258.153 313.409C258.117 313.634 257.99 313.784 257.844 313.784C257.818 313.784 257.791 313.784 257.765 313.77ZM257.175 317.109C257.007 317.034 256.906 316.754 256.959 316.495C257.007 316.23 257.183 316.087 257.355 316.155C257.523 316.237 257.62 316.509 257.571 316.768C257.531 316.986 257.404 317.129 257.267 317.129C257.236 317.129 257.205 317.122 257.175 317.109ZM256.487 320.406C256.315 320.317 256.227 320.038 256.284 319.779C256.342 319.513 256.522 319.384 256.69 319.466C256.857 319.554 256.945 319.834 256.888 320.092C256.888 320.092 256.888 320.092 256.893 320.092C256.844 320.304 256.721 320.426 256.589 320.426C256.553 320.426 256.518 320.419 256.487 320.406ZM255.698 323.649C255.535 323.546 255.456 323.26 255.518 323.008C255.579 322.749 255.765 322.627 255.932 322.729C256.095 322.824 256.174 323.11 256.113 323.369C256.064 323.56 255.941 323.683 255.813 323.683C255.778 323.683 255.738 323.669 255.698 323.649ZM254.822 326.83C254.659 326.721 254.584 326.435 254.659 326.183C254.729 325.931 254.919 325.822 255.082 325.931C255.24 326.04 255.315 326.333 255.245 326.585C255.187 326.769 255.068 326.878 254.949 326.878C254.905 326.878 254.861 326.864 254.822 326.83ZM253.848 329.957C253.694 329.828 253.628 329.535 253.707 329.289C253.786 329.051 253.976 328.949 254.139 329.071C254.293 329.194 254.359 329.487 254.28 329.732C254.222 329.909 254.108 330.011 253.993 330.011C253.945 330.011 253.892 329.991 253.848 329.957ZM252.79 333.009C252.636 332.873 252.583 332.573 252.667 332.335C252.755 332.089 252.949 332.008 253.103 332.144C253.253 332.273 253.31 332.58 253.227 332.811C253.169 332.975 253.059 333.063 252.945 333.063C252.896 333.063 252.839 333.05 252.79 333.009ZM251.649 335.979C251.495 335.836 251.451 335.53 251.543 335.298C251.636 335.066 251.834 334.991 251.984 335.134C252.134 335.278 252.178 335.584 252.085 335.816C252.024 335.972 251.918 336.047 251.817 336.047C251.759 336.047 251.702 336.034 251.649 335.979ZM250.42 338.875C250.27 338.718 250.235 338.411 250.332 338.186C250.433 337.955 250.631 337.894 250.777 338.057C250.922 338.207 250.962 338.513 250.86 338.745C250.799 338.881 250.697 338.956 250.596 338.956C250.539 338.956 250.473 338.929 250.42 338.875ZM249.107 341.674C248.966 341.518 248.939 341.204 249.045 340.986C249.146 340.762 249.349 340.721 249.49 340.884C249.631 341.041 249.662 341.354 249.556 341.572C249.49 341.709 249.398 341.77 249.301 341.77C249.234 341.77 249.168 341.743 249.107 341.674ZM247.719 344.386C247.582 344.216 247.56 343.909 247.675 343.691C247.785 343.48 247.988 343.453 248.124 343.623C248.261 343.793 248.278 344.107 248.168 344.318C248.106 344.44 248.014 344.502 247.921 344.502C247.851 344.502 247.78 344.461 247.719 344.386ZM246.256 347.002C246.124 346.818 246.11 346.511 246.229 346.307C246.348 346.096 246.551 346.082 246.683 346.266C246.815 346.443 246.824 346.757 246.705 346.961C246.644 347.07 246.555 347.124 246.467 347.124C246.392 347.124 246.318 347.084 246.256 347.002ZM244.718 349.516C244.595 349.325 244.59 349.005 244.714 348.814C244.837 348.616 245.04 348.616 245.163 348.807C245.295 348.998 245.295 349.311 245.172 349.509C245.106 349.604 245.027 349.652 244.943 349.652C244.863 349.652 244.78 349.604 244.718 349.516ZM243.114 351.92C242.995 351.716 243 351.41 243.127 351.219C243.255 351.035 243.458 351.042 243.581 351.239C243.7 351.444 243.691 351.757 243.564 351.941C243.502 352.029 243.423 352.077 243.348 352.077C243.26 352.077 243.176 352.023 243.114 351.92ZM241.44 354.216C241.325 354.005 241.338 353.699 241.475 353.515C241.607 353.337 241.81 353.358 241.925 353.569C242.039 353.773 242.026 354.087 241.889 354.264C241.832 354.346 241.757 354.38 241.682 354.38C241.594 354.38 241.506 354.325 241.44 354.216ZM239.704 356.389C239.598 356.171 239.62 355.865 239.761 355.695C239.898 355.531 240.096 355.565 240.206 355.783C240.316 355.994 240.294 356.301 240.153 356.471C240.096 356.546 240.025 356.573 239.959 356.573C239.862 356.573 239.77 356.512 239.704 356.389ZM237.91 358.447C237.809 358.229 237.84 357.915 237.985 357.759C238.126 357.602 238.325 357.65 238.43 357.868C238.532 358.093 238.501 358.399 238.355 358.563C238.298 358.624 238.236 358.651 238.166 358.651C238.069 358.651 237.972 358.583 237.91 358.447ZM236.055 360.382C235.958 360.15 236.003 359.843 236.152 359.694C236.298 359.544 236.496 359.612 236.593 359.837C236.69 360.068 236.646 360.375 236.5 360.525C236.448 360.579 236.386 360.6 236.324 360.6C236.223 360.6 236.121 360.525 236.055 360.382ZM234.152 362.187C234.064 361.948 234.112 361.649 234.262 361.506C234.416 361.369 234.61 361.444 234.703 361.676C234.791 361.914 234.742 362.214 234.588 362.357C234.54 362.398 234.482 362.425 234.425 362.425C234.319 362.425 234.214 362.337 234.152 362.187ZM232.2 363.856C232.116 363.611 232.173 363.311 232.332 363.182V363.188C232.486 363.059 232.68 363.147 232.76 363.386C232.843 363.624 232.786 363.924 232.632 364.054C232.583 364.094 232.53 364.115 232.482 364.115C232.367 364.115 232.257 364.013 232.2 363.856ZM230.199 365.382C230.125 365.137 230.191 364.844 230.349 364.728C230.508 364.612 230.697 364.714 230.772 364.96C230.852 365.205 230.786 365.505 230.622 365.614C230.578 365.654 230.534 365.668 230.486 365.668C230.367 365.668 230.252 365.559 230.199 365.382ZM228.159 366.779C228.089 366.526 228.164 366.24 228.327 366.131C228.49 366.029 228.679 366.145 228.745 366.397C228.816 366.642 228.737 366.935 228.578 367.044C228.534 367.065 228.494 367.085 228.45 367.085C228.327 367.085 228.208 366.969 228.159 366.779ZM226.08 368.032C226.018 367.773 226.102 367.487 226.265 367.392C226.432 367.303 226.617 367.426 226.679 367.685C226.741 367.943 226.657 368.23 226.489 368.325C226.454 368.345 226.415 368.352 226.379 368.352C226.251 368.352 226.128 368.23 226.08 368.032ZM223.96 369.136C223.907 368.884 224 368.597 224.167 368.523C224.335 368.441 224.515 368.577 224.568 368.836C224.626 369.102 224.533 369.374 224.366 369.456C224.33 369.476 224.3 369.483 224.264 369.483C224.132 369.483 224.004 369.354 223.96 369.136ZM221.814 370.103C221.766 369.837 221.867 369.565 222.039 369.497C222.207 369.429 222.383 369.578 222.427 369.844C222.475 370.11 222.374 370.376 222.207 370.444C222.176 370.457 222.149 370.464 222.123 370.464C221.982 370.464 221.854 370.321 221.814 370.103ZM219.642 370.914C219.602 370.648 219.708 370.376 219.88 370.321C220.056 370.26 220.224 370.43 220.263 370.696C220.303 370.961 220.197 371.22 220.021 371.282C219.999 371.295 219.973 371.295 219.951 371.295C219.805 371.295 219.673 371.139 219.642 370.914ZM217.443 371.568C217.417 371.302 217.532 371.043 217.703 370.995C217.88 370.955 218.047 371.132 218.073 371.397C218.104 371.663 217.99 371.922 217.814 371.97C217.796 371.976 217.778 371.976 217.761 371.976C217.606 371.976 217.474 371.813 217.443 371.568ZM215.231 372.072C215.209 371.799 215.337 371.554 215.509 371.52C215.685 371.486 215.844 371.67 215.866 371.942C215.892 372.215 215.769 372.46 215.593 372.501C215.58 372.501 215.566 372.501 215.549 372.501C215.394 372.501 215.253 372.324 215.231 372.072ZM213.011 372.426C212.993 372.154 213.125 371.915 213.302 371.888C213.478 371.867 213.632 372.065 213.645 372.338C213.663 372.61 213.531 372.855 213.354 372.876C213.346 372.876 213.337 372.876 213.328 372.876C213.161 372.876 213.024 372.678 213.011 372.426ZM210.781 372.624C210.768 372.351 210.909 372.12 211.085 372.106C211.257 372.099 211.407 372.31 211.416 372.583C211.424 372.855 211.288 373.087 211.112 373.094C211.107 373.094 211.103 373.094 211.094 373.094C210.927 373.094 210.786 372.889 210.781 372.624Z" fill="#2A3663"/>
</g>
<mask id="mask1_352_131" style="mask-type:luminance" maskUnits="userSpaceOnUse" x="208" y="129" width="52" height="160">
<path d="M208.68 129.09H259.581V288.652H208.68V129.09Z" fill="white"/>
</mask>
<g mask="url(#mask1_352_131)">
<path d="M259.263 288.264C259.087 288.264 258.942 288.039 258.942 287.767V207.27C258.942 186.744 253.738 167.397 244.291 152.777C234.844 138.157 222.33 130.091 209.054 130.078H209.015C208.838 130.078 208.697 129.853 208.697 129.58C208.697 129.308 208.838 129.09 209.015 129.09H209.054C222.498 129.103 235.174 137.272 244.745 152.075C254.311 166.879 259.581 186.485 259.581 207.27V287.767C259.581 288.039 259.44 288.264 259.263 288.264Z" fill="#2A3663"/>
</g>
<mask id="mask2_352_131" style="mask-type:luminance" maskUnits="userSpaceOnUse" x="158" y="129" width="50" height="86">
<path d="M158.352 129.09H207.552V214.512H158.352V129.09Z" fill="white"/>
</mask>
<g mask="url(#mask2_352_131)">
<path d="M206.772 129.655C206.767 129.383 206.904 129.158 207.08 129.144C207.256 129.131 207.406 129.349 207.41 129.614C207.419 129.894 207.278 130.118 207.106 130.132C207.098 130.132 207.098 130.132 207.093 130.132C206.921 130.132 206.78 129.928 206.772 129.655ZM204.542 129.887C204.529 129.614 204.657 129.376 204.833 129.355C205.009 129.328 205.163 129.532 205.177 129.805C205.19 130.077 205.062 130.316 204.886 130.336C204.877 130.336 204.868 130.343 204.859 130.343C204.696 130.343 204.555 130.146 204.542 129.887ZM202.317 130.275C202.295 130.003 202.423 129.757 202.599 129.723C202.771 129.689 202.934 129.873 202.956 130.146C202.978 130.418 202.85 130.663 202.678 130.697C202.665 130.704 202.652 130.704 202.634 130.704C202.48 130.704 202.343 130.52 202.317 130.275ZM200.109 130.806C200.083 130.541 200.197 130.282 200.374 130.241C200.546 130.193 200.713 130.377 200.739 130.643C200.775 130.915 200.656 131.161 200.484 131.215C200.462 131.215 200.444 131.215 200.427 131.215C200.272 131.215 200.14 131.052 200.109 130.806ZM197.924 131.501C197.88 131.236 197.994 130.97 198.166 130.915C198.338 130.854 198.505 131.018 198.545 131.283C198.585 131.556 198.475 131.815 198.303 131.876C198.281 131.883 198.254 131.89 198.232 131.89C198.087 131.89 197.955 131.733 197.924 131.501ZM195.752 132.346C195.707 132.08 195.809 131.815 195.976 131.733C196.148 131.665 196.324 131.828 196.368 132.087C196.412 132.353 196.316 132.619 196.144 132.693C196.117 132.707 196.086 132.707 196.06 132.707C195.919 132.707 195.791 132.564 195.752 132.346ZM193.61 133.341C193.557 133.075 193.65 132.802 193.822 132.721C193.985 132.632 194.165 132.775 194.218 133.034C194.275 133.3 194.179 133.572 194.011 133.661C193.98 133.674 193.949 133.681 193.914 133.681C193.778 133.681 193.654 133.552 193.61 133.341ZM191.5 134.478C191.438 134.219 191.522 133.933 191.689 133.838C191.689 133.838 191.689 133.838 191.689 133.845C191.856 133.749 192.041 133.879 192.099 134.138C192.16 134.397 192.077 134.676 191.909 134.771C191.874 134.792 191.834 134.799 191.799 134.799C191.667 134.799 191.548 134.676 191.5 134.478ZM189.429 135.759C189.362 135.507 189.437 135.221 189.6 135.112C189.763 135.01 189.949 135.126 190.019 135.378C190.09 135.63 190.01 135.923 189.847 136.025C189.808 136.052 189.763 136.066 189.724 136.066C189.6 136.066 189.481 135.95 189.429 135.759ZM187.397 137.183C187.322 136.938 187.393 136.645 187.552 136.529C187.71 136.413 187.9 136.515 187.975 136.761C188.049 137.006 187.983 137.306 187.82 137.421V137.415C187.776 137.455 187.732 137.469 187.684 137.469C187.565 137.469 187.45 137.36 187.397 137.183ZM185.406 138.75C185.322 138.505 185.384 138.212 185.542 138.082C185.696 137.953 185.89 138.041 185.974 138.287C186.053 138.532 185.996 138.825 185.837 138.954C185.789 138.995 185.741 139.015 185.692 139.015C185.578 139.015 185.463 138.913 185.406 138.75ZM183.463 140.446C183.374 140.208 183.427 139.908 183.577 139.765C183.731 139.629 183.925 139.71 184.013 139.949C184.101 140.187 184.053 140.487 183.903 140.623C183.85 140.671 183.793 140.691 183.74 140.691C183.63 140.691 183.52 140.603 183.463 140.446ZM181.568 142.279C181.475 142.054 181.515 141.74 181.665 141.591C181.815 141.448 182.008 141.509 182.105 141.74C182.202 141.972 182.163 142.272 182.008 142.422C181.956 142.476 181.898 142.503 181.837 142.503C181.731 142.503 181.63 142.422 181.568 142.279ZM179.73 144.234C179.629 144.016 179.664 143.709 179.805 143.546C179.951 143.389 180.149 143.437 180.25 143.662C180.352 143.886 180.321 144.193 180.175 144.35C180.118 144.411 180.056 144.438 179.99 144.438C179.893 144.438 179.792 144.377 179.73 144.234ZM177.946 146.318C177.836 146.1 177.862 145.794 178.003 145.63C178.14 145.46 178.342 145.494 178.453 145.712C178.558 145.93 178.532 146.237 178.395 146.407C178.334 146.475 178.268 146.509 178.197 146.509C178.105 146.509 178.008 146.441 177.946 146.318ZM176.223 148.526C176.108 148.315 176.126 148.001 176.258 147.824C176.395 147.647 176.593 147.674 176.708 147.879C176.827 148.09 176.809 148.396 176.672 148.573C176.615 148.655 176.54 148.696 176.465 148.696C176.377 148.696 176.289 148.635 176.223 148.526ZM174.566 150.842C174.443 150.644 174.452 150.324 174.58 150.14C174.712 149.956 174.914 149.963 175.033 150.168C175.152 150.365 175.148 150.678 175.02 150.862C174.954 150.951 174.879 150.999 174.8 150.999C174.716 150.999 174.628 150.944 174.566 150.842ZM172.976 153.267C172.852 153.076 172.848 152.763 172.971 152.572C173.095 152.375 173.297 152.368 173.421 152.566C173.548 152.756 173.548 153.07 173.429 153.26C173.363 153.356 173.28 153.41 173.2 153.41C173.117 153.41 173.037 153.363 172.976 153.267ZM171.455 155.801C171.323 155.624 171.314 155.304 171.429 155.1C171.429 155.1 171.429 155.1 171.429 155.107C171.548 154.902 171.751 154.882 171.883 155.066C172.011 155.25 172.024 155.563 171.905 155.767C171.843 155.87 171.755 155.924 171.667 155.924C171.592 155.924 171.513 155.89 171.455 155.801ZM170.006 158.438C169.869 158.261 169.852 157.954 169.962 157.743C170.072 157.532 170.275 157.505 170.411 157.675C170.548 157.852 170.57 158.159 170.46 158.377C170.394 158.492 170.301 158.554 170.209 158.554C170.138 158.554 170.068 158.52 170.006 158.438ZM168.635 161.17C168.49 161.006 168.468 160.7 168.574 160.475C168.68 160.264 168.878 160.216 169.019 160.379C169.16 160.55 169.186 160.856 169.085 161.074C169.019 161.204 168.922 161.265 168.829 161.265C168.759 161.265 168.693 161.238 168.635 161.17ZM167.344 163.997C167.199 163.84 167.159 163.534 167.261 163.309C167.358 163.077 167.56 163.03 167.701 163.179C167.851 163.336 167.886 163.643 167.785 163.867C167.723 164.004 167.622 164.079 167.525 164.079C167.459 164.079 167.402 164.051 167.344 163.997ZM166.128 166.906C165.979 166.763 165.934 166.456 166.027 166.225C166.12 165.993 166.318 165.918 166.472 166.068C166.617 166.211 166.666 166.518 166.569 166.749C166.512 166.892 166.406 166.981 166.3 166.981C166.243 166.981 166.186 166.954 166.128 166.906ZM165.005 169.897C164.851 169.76 164.793 169.461 164.886 169.222C164.965 168.984 165.163 168.902 165.318 169.031C165.472 169.168 165.525 169.467 165.441 169.706C165.384 169.869 165.274 169.958 165.163 169.958C165.106 169.958 165.053 169.937 165.005 169.897ZM163.965 172.962C163.806 172.84 163.745 172.54 163.824 172.301C163.903 172.049 164.093 171.954 164.251 172.077C164.41 172.199 164.476 172.492 164.397 172.744C164.339 172.914 164.225 173.017 164.11 173.017C164.062 173.017 164.013 172.996 163.965 172.962ZM163.013 176.096C162.854 175.987 162.78 175.694 162.854 175.442C162.925 175.19 163.114 175.081 163.277 175.19C163.436 175.306 163.511 175.599 163.436 175.844C163.383 176.028 163.269 176.137 163.145 176.137C163.101 176.137 163.057 176.13 163.013 176.096ZM162.158 179.291C161.991 179.196 161.912 178.909 161.978 178.651C162.039 178.399 162.224 178.276 162.392 178.378C162.555 178.473 162.634 178.766 162.572 179.018C162.52 179.209 162.401 179.325 162.273 179.325C162.238 179.325 162.194 179.318 162.158 179.291ZM161.392 182.547C161.224 182.459 161.136 182.179 161.193 181.921C161.251 181.662 161.436 181.525 161.599 181.614C161.766 181.703 161.854 181.982 161.797 182.241C161.753 182.452 161.63 182.581 161.493 182.581C161.458 182.581 161.422 182.568 161.392 182.547ZM160.722 185.858C160.554 185.783 160.457 185.504 160.506 185.245C160.554 184.979 160.735 184.83 160.903 184.911C161.074 184.986 161.171 185.259 161.118 185.524C161.074 185.742 160.947 185.879 160.81 185.879C160.784 185.879 160.748 185.872 160.722 185.858ZM160.149 189.196C159.977 189.135 159.876 188.869 159.916 188.597C159.955 188.338 160.131 188.174 160.303 188.243C160.475 188.304 160.576 188.57 160.537 188.835C160.502 189.067 160.369 189.217 160.224 189.217C160.202 189.217 160.175 189.21 160.149 189.196ZM159.678 192.575C159.506 192.521 159.391 192.262 159.426 191.996C159.457 191.731 159.629 191.553 159.801 191.608C159.973 191.662 160.087 191.928 160.052 192.194C160.021 192.425 159.889 192.589 159.739 192.589C159.717 192.589 159.695 192.582 159.678 192.575ZM159.299 195.988C159.127 195.941 159.003 195.689 159.034 195.423C159.061 195.15 159.224 194.967 159.4 195.007C159.572 195.048 159.691 195.307 159.664 195.573C159.642 195.818 159.506 195.988 159.352 195.988C159.334 195.988 159.316 195.988 159.299 195.988ZM159.025 199.415C158.849 199.388 158.721 199.143 158.739 198.87C158.761 198.598 158.92 198.4 159.096 198.434C159.268 198.461 159.396 198.707 159.374 198.979C159.36 199.231 159.219 199.422 159.061 199.422C159.047 199.422 159.039 199.422 159.025 199.415ZM158.849 202.862C158.673 202.842 158.541 202.61 158.55 202.338C158.563 202.065 158.713 201.861 158.889 201.874C159.065 201.895 159.197 202.126 159.188 202.399C159.18 202.658 159.034 202.862 158.867 202.862C158.862 202.862 158.854 202.862 158.849 202.862ZM158.774 206.316C158.598 206.309 158.457 206.085 158.461 205.812C158.461 205.54 158.607 205.322 158.783 205.328C158.959 205.335 159.1 205.56 159.1 205.832C159.096 206.105 158.951 206.316 158.779 206.316C158.774 206.316 158.774 206.316 158.774 206.316ZM158.448 209.28C158.448 209.007 158.594 208.782 158.77 208.782C158.946 208.782 159.087 209.007 159.087 209.28C159.087 209.552 158.946 209.77 158.77 209.77C158.594 209.77 158.448 209.552 158.448 209.28ZM158.448 212.734C158.448 212.468 158.594 212.243 158.77 212.243C158.946 212.243 159.087 212.468 159.087 212.734C159.087 213.006 158.946 213.231 158.77 213.231C158.594 213.231 158.448 213.006 158.448 212.734Z" fill="#2A3663"/>
</g>
<mask id="mask3_352_131" style="mask-type:luminance" maskUnits="userSpaceOnUse" x="158" y="213" width="52" height="161">
<path d="M158.449 213.565H209.571V373.162H158.449V213.565Z" fill="white"/>
</mask>
<g mask="url(#mask3_352_131)">
<path d="M209.073 373.161H209.015C195.563 373.161 182.882 365.007 173.303 350.196C163.723 335.393 158.449 315.78 158.449 294.981V214.498C158.449 214.226 158.595 214.001 158.771 214.001C158.947 214.001 159.088 214.226 159.088 214.498V294.981C159.088 315.521 164.296 334.875 173.757 349.495C183.212 364.121 195.735 372.174 209.015 372.174H209.073C209.249 372.174 209.394 372.398 209.394 372.671C209.394 372.943 209.249 373.161 209.073 373.161Z" fill="#2A3663"/>
</g>
<path d="M209.015 137.265C197.061 137.265 185.786 144.514 177.268 157.682C168.755 170.844 164.063 188.277 164.063 206.759V295.492C164.063 313.981 168.755 331.408 177.268 344.576C185.786 357.738 197.061 364.987 209.015 364.987C220.974 364.987 232.249 357.738 240.762 344.576C249.28 331.408 253.968 313.981 253.968 295.492V206.759C253.968 188.277 249.28 170.844 240.767 157.682C232.249 144.514 220.974 137.265 209.015 137.265ZM209.015 365.974C196.889 365.974 185.455 358.624 176.819 345.271C168.183 331.919 163.424 314.24 163.424 295.492V206.759C163.424 188.011 168.183 170.333 176.819 156.981C185.455 143.628 196.889 136.277 209.015 136.277C221.146 136.277 232.58 143.628 241.216 156.981C249.852 170.333 254.607 188.011 254.607 206.759V295.492C254.607 314.24 249.852 331.919 241.216 345.271C232.58 358.624 221.146 365.974 209.015 365.974Z" fill="#2A3663"/>
<mask id="mask4_352_131" style="mask-type:luminance" maskUnits="userSpaceOnUse" x="182" y="158" width="45" height="156">
<path d="M182.736 158.704H226.728V313.92H182.736V158.704Z" fill="white"/>
</mask>
<g mask="url(#mask4_352_131)">
<mask id="mask5_352_131" style="mask-type:luminance" maskUnits="userSpaceOnUse" x="170" y="157" width="63" height="158">
<path d="M191.98 157.157L232.399 171.382L211.372 314.226L170.949 300.002L191.98 157.157Z" fill="white"/>
</mask>
<g mask="url(#mask5_352_131)">
<mask id="mask6_352_131" style="mask-type:luminance" maskUnits="userSpaceOnUse" x="171" y="157" width="62" height="158">
<path d="M232.734 171.505L192.315 157.28L171.284 300.118L211.707 314.342L232.734 171.505Z" fill="white"/>
</mask>
<g mask="url(#mask6_352_131)">
<mask id="mask7_352_131" style="mask-type:luminance" maskUnits="userSpaceOnUse" x="171" y="157" width="62" height="158">
<path d="M232.734 171.505L192.315 157.28L171.284 300.118L211.707 314.342L232.734 171.505Z" fill="white"/>
</mask>
<g mask="url(#mask7_352_131)">
<path d="M198.937 271.764C198.589 271.356 198.739 270.702 198.647 270.17C198.215 267.609 197.84 265.027 197.426 262.452C197.201 261.055 197.144 259.659 197.162 258.208C197.197 255.503 197.342 252.798 197.298 250.08C197.215 245.359 196.562 240.89 195.298 236.598C194.474 233.805 193.284 231.489 191.857 229.452C191.359 228.737 190.746 228.198 190.156 227.66C189.526 227.088 188.86 226.611 188.204 226.1C186.595 224.833 185.133 223.259 183.89 221.209C183.705 220.902 183.485 220.65 183.322 220.425C183.013 220.494 183.093 220.752 183.137 220.909C183.908 223.804 184.057 226.863 184.146 229.949C184.273 234.391 185.014 238.547 186.521 242.348C187.538 244.91 188.728 247.267 189.979 249.549C191.204 251.777 192.482 253.922 193.742 256.096C194.421 257.261 195.086 258.439 195.619 259.788C196.082 260.96 196.421 262.2 196.629 263.528C197.184 267.077 197.809 270.606 198.259 274.19C198.598 276.874 199.109 279.463 199.545 282.092C199.708 283.06 199.973 283.979 200.176 284.933C200.431 286.152 200.665 287.379 200.762 288.673C200.885 290.233 201.052 291.786 201.625 293.156C201.819 293.619 201.916 294.205 202 294.757C202.396 297.264 202.925 299.709 203.551 302.094C204.229 304.669 204.934 307.23 205.666 309.771C205.912 310.616 206.274 311.372 206.604 312.149C206.732 312.449 206.939 312.639 207.208 312.49C207.309 311.958 207.124 311.543 206.966 311.127C205.199 306.481 204.057 301.426 202.956 296.344C202.405 293.81 202.176 291.194 201.951 288.571C201.85 287.385 201.898 286.166 202.009 284.947C202.37 281.05 203.701 278.018 205.406 275.314C206.666 273.311 208.076 271.58 209.609 270.095C210.627 269.108 211.623 268.086 212.562 266.907C213.932 265.184 214.848 262.99 215.531 260.544C215.805 259.577 216.095 258.603 216.289 257.554C216.783 254.856 216.717 252.178 216.417 249.474C216.161 247.164 216.117 247.028 215.377 245.1C215.263 244.596 215.831 244.324 215.562 243.765C215.518 243.751 215.456 243.697 215.434 243.724C215.003 244.262 214.571 244.794 214.157 245.352C213.346 246.442 212.473 247.41 211.5 248.057C209.944 249.092 208.636 250.625 207.411 252.39C205.388 255.305 203.864 258.739 202.788 262.697C202.48 263.835 202.22 264.966 202.044 266.151C201.771 267.97 201.519 269.796 201.242 271.615C200.938 273.57 200.889 275.566 200.85 277.562C200.836 278.134 200.85 278.713 200.541 279.251C200.237 277.487 200.127 275.736 200.065 273.999C199.968 271.288 199.929 268.576 199.907 265.858C199.894 264.223 200.004 262.595 200.14 260.96C200.312 258.814 200.607 256.777 201.057 254.72C201.581 252.322 202.304 250.114 203.167 248.002C204.498 244.739 205.886 241.524 207.226 238.267C207.582 237.395 208.01 236.714 208.574 236.176C210.006 234.82 211.566 233.962 213.152 233.206C214.998 232.32 216.84 231.428 218.594 230.12C220.356 228.798 221.973 227.156 223.269 224.867C224.049 223.477 224.701 221.911 225.216 220.201C225.767 218.354 226.124 216.42 226.274 214.437C226.626 209.716 226.291 205.159 224.599 201.064C224.547 201.03 224.498 200.969 224.472 200.989C224.348 201.071 224.234 201.18 224.141 201.262C223.952 201.868 224.313 202.229 224.326 202.754C224.313 202.856 224.309 202.999 224.273 203.128C223.983 204.096 223.639 205.036 223.41 206.044C222.656 209.355 221.392 212.141 219.885 214.689C218.008 217.864 215.937 220.705 213.747 223.341C212.839 224.431 211.993 225.651 211.125 226.802C210.914 226.577 210.958 226.298 210.988 226.032C211.359 223.225 211.557 220.378 211.632 217.53C211.702 214.826 211.605 212.101 211.372 209.41C211.293 208.483 211.235 207.557 211.165 206.582C211.235 206.364 211.319 206.119 211.438 205.765C211.411 205.234 211.429 204.58 211.345 203.96C211.218 202.972 211.24 201.964 211.147 200.983C210.997 199.402 211.191 197.842 211.196 196.275C211.2 195.464 211.473 194.654 211.649 193.734C212.13 193.114 212.667 192.446 213.196 191.758C213.98 190.75 214.668 189.619 215.205 188.25C216.148 185.859 217.179 183.577 218.404 181.512C218.748 180.933 219.043 180.279 219.352 179.653C219.739 178.876 219.841 177.943 219.867 177.016C219.889 176.219 219.722 175.456 219.33 174.87C217.752 173.896 217.426 174.053 215.875 176.505C215.752 176.485 215.611 176.492 215.487 176.43C215.359 176.369 215.249 176.24 215.179 176.178C214.959 174.714 214.769 173.317 214.536 171.941C214.333 170.728 213.936 169.706 213.143 169.046C212.914 169.148 212.654 169.264 212.398 169.373C212.103 170.517 211.94 171.593 212.028 172.779C212.218 175.415 212.072 178.058 212.028 180.695C212.011 181.758 211.79 182.814 211.636 183.863C211.469 184.98 211.275 186.09 211.09 187.201C210.892 188.393 210.808 189.585 210.909 190.818C211.033 192.365 210.98 192.555 210.464 194.388C210.394 194.047 210.319 193.789 210.292 193.509C209.962 190.083 209.178 186.894 208.226 183.781C207.706 182.091 207.124 180.47 206.468 178.917C205.507 176.641 204.657 174.264 203.872 171.839C203.405 170.374 203.075 168.793 202.74 167.24C202.52 166.225 202.392 165.162 202.246 164.113C202.066 162.839 201.665 161.715 201.326 160.55C201.304 160.475 201.163 160.475 201.039 160.421C200.484 161.634 200.048 162.948 199.748 164.386C199.735 164.454 199.731 164.529 199.713 164.59C199.268 165.953 199.127 167.404 199.048 168.916C198.99 169.992 198.959 171.069 199.003 172.125C199.122 175.293 199.625 178.317 200.462 181.226C201.339 184.265 202.542 186.949 203.912 189.463C205.617 192.59 207.018 196.023 208.318 199.572C208.799 200.874 209.244 202.202 209.68 203.544C209.847 204.048 209.988 204.593 210.054 205.145C210.491 208.728 210.737 212.353 210.724 216.004C210.72 217.353 210.764 218.722 210.57 220.064C210.499 220.541 210.561 221.059 210.535 221.549C210.526 221.747 210.447 221.931 210.328 222.421C210.235 221.584 210.142 221.052 210.116 220.507C210.015 218.566 209.719 216.692 209.385 214.826C209.16 213.586 208.856 212.387 208.415 211.283C208.34 211.106 208.274 210.915 208.204 210.731C207.684 209.464 207.107 208.245 206.657 206.916C206.208 205.601 205.851 204.198 205.512 202.795C205.075 200.989 204.3 199.606 203.397 198.373C202.947 197.76 202.458 197.215 202.009 196.609C201.453 195.866 200.92 195.083 200.365 194.327C200.233 194.15 200.065 194.034 199.841 193.823C199.801 194.109 199.753 194.279 199.753 194.456C199.753 195.308 199.748 196.166 199.77 197.024C199.836 199.845 200.577 202.154 202.057 203.776C202.687 204.471 203.339 205.159 204.102 205.513C204.555 205.717 204.925 206.133 205.225 206.698C206.803 209.634 208.12 212.782 208.719 216.576C209.107 219.022 209.296 221.495 209.296 224.009C209.296 224.506 209.222 225.003 209.186 225.501C209.147 226.134 209.12 226.775 209.076 227.415C208.97 228.989 208.803 230.528 208.23 231.898C207.781 232.981 207.402 234.112 207.076 235.311C206.719 236.619 206.23 237.852 205.736 239.058C204.525 242.007 203.278 244.93 202.053 247.846C201.987 246.797 202.035 246.252 202.339 245.325C202.819 243.854 203.238 242.355 203.467 240.733C203.582 239.896 203.679 239.03 204.04 238.329C204.066 238.274 204.075 238.199 204.088 238.131C204.63 235.168 205.441 232.327 205.701 229.248C206.067 225.01 205.965 220.834 205.062 216.76C204.657 214.928 204.176 213.143 203.436 211.569C202.643 209.893 201.801 208.292 200.594 207.277C200.436 207.141 200.286 206.957 200.114 206.875C199.334 206.494 198.55 206.14 197.708 205.744C197.589 205.588 197.616 205.104 197.298 205.029C197.206 205.104 197.087 205.206 196.977 205.302C196.417 209.232 196.88 212.986 197.677 216.679C198.105 218.641 198.664 220.521 199.255 222.387C200.171 225.276 200.969 228.233 201.462 231.387C201.863 233.975 201.987 236.605 201.987 239.255C201.991 239.752 201.916 240.25 201.85 240.74C201.656 242.144 201.445 243.547 201.242 244.944C201.088 245.986 200.92 247.008 200.845 248.084C200.766 249.208 200.453 250.291 200.277 251.402C200.105 252.444 199.968 253.5 199.827 254.556C199.722 255.326 199.607 256.075 199.638 256.893C199.664 257.588 199.541 258.317 199.418 259.005C199.109 260.749 199.07 262.547 198.999 264.318C198.929 266.171 198.99 268.031 199.052 269.884C199.078 270.545 199.039 271.158 198.92 271.785C198.955 271.819 198.999 271.839 199.026 271.887C199.043 271.921 199.039 271.989 199.043 272.044C199.003 271.955 198.968 271.86 198.937 271.764ZM202.154 201.759C201.599 201.555 201.361 200.928 201.246 200.131C200.995 199.831 200.77 199.511 200.982 198.877C201.079 199.034 201.198 199.15 201.229 199.3C201.273 199.552 201.264 199.838 201.273 200.104C201.793 200.363 202.026 200.996 202.145 201.766C202.194 201.861 202.423 201.855 202.22 202.093C202.198 201.977 202.176 201.868 202.154 201.759ZM204.287 202.536C204.128 202.413 203.938 202.345 203.815 202.161C203.176 201.262 202.617 200.254 202.158 199.116C202.132 199.055 202.202 198.905 202.251 198.707C202.731 199.388 203.22 200.008 203.643 200.717C203.938 201.221 204.256 201.759 204.322 202.502C204.375 202.611 204.582 202.652 204.375 202.856C204.348 202.747 204.317 202.645 204.287 202.536ZM208.539 196.922C208.094 196.466 207.917 195.696 207.657 195.035C206.847 192.951 205.912 191.002 204.912 189.136C203.82 187.105 202.78 185.014 201.969 182.677C201.577 181.553 201.22 180.388 200.925 179.189C200.295 176.635 199.982 173.978 199.907 171.239C199.832 168.705 200.145 165.83 200.876 163.105C201.088 163.16 201.163 163.425 201.198 163.691C201.312 164.604 201.37 165.537 201.519 166.43C202.039 169.488 202.815 172.384 203.824 175.122C204.948 178.161 206.212 181.056 207.265 184.162C208.42 187.562 209.138 191.145 209.601 194.885C209.618 195.008 209.521 195.171 209.446 195.417C209.336 195.103 209.252 194.926 209.208 194.735C208.9 193.387 208.631 192.024 208.296 190.689C207.353 186.908 205.943 183.59 204.119 180.702C203.767 180.15 203.352 179.673 202.951 179.21C202.828 179.067 202.639 178.951 202.449 179.278C203.07 180.579 203.665 181.935 204.331 183.195C205.538 185.477 206.516 187.964 207.261 190.668C207.693 192.249 208.058 193.863 208.433 195.478C208.539 195.941 208.644 196.432 208.517 196.943C208.552 196.984 208.596 197.004 208.622 197.052C208.64 197.086 208.631 197.154 208.636 197.202C208.605 197.106 208.569 197.018 208.539 196.922ZM187.781 232.838C187.939 233.178 188.089 233.539 188.261 233.866C189.05 235.358 189.887 236.782 190.618 238.329C191.94 241.108 192.918 244.174 193.628 247.451C193.892 248.67 194.165 249.883 194.412 251.109C194.699 252.54 194.967 253.984 195.236 255.421C195.28 255.673 195.36 255.966 195.113 256.102C195.042 256.007 194.959 255.932 194.901 255.823C193.081 252.519 191.147 249.379 189.451 245.904C188.53 244.017 187.697 242.055 186.93 240.025C186.538 238.983 186.203 237.865 185.965 236.714C185.459 234.262 185.133 231.727 185.093 229.139C185.071 227.912 185 226.72 184.864 225.521C184.846 225.351 184.93 225.153 184.97 224.963C185.102 225.01 185.208 224.997 185.274 225.072C186.538 226.489 187.917 227.613 189.288 228.757C190.09 229.425 190.861 230.174 191.53 231.196C193.17 233.696 194.311 236.68 195.135 239.977C195.752 242.457 196.117 245.032 196.289 247.682C196.435 249.889 196.386 252.097 196.395 254.304C196.395 254.454 196.267 254.604 196.131 254.897C196.016 254.427 195.919 254.113 195.862 253.779C195.28 250.387 194.522 247.09 193.65 243.867C193.245 242.355 192.777 240.856 192.191 239.5C191.376 237.613 190.394 235.903 189.314 234.337C188.882 233.71 188.455 233.069 187.781 232.838ZM213.905 247.607C213.963 247.737 214.02 247.812 214.011 247.846C213.835 248.581 213.65 249.31 213.46 250.039C213.412 250.237 213.337 250.421 213.275 250.612C212.482 253.2 211.566 255.666 210.447 257.962C209.499 259.911 208.561 261.879 207.499 263.664C206.239 265.776 205.133 268.052 204.093 270.422C203.599 271.553 203.167 272.718 202.758 273.924C202.418 274.925 202.282 276.097 201.669 277.017C201.594 276.084 201.872 275.273 201.819 274.462C201.753 273.427 201.929 272.473 202.061 271.492C202.233 270.225 202.418 268.964 202.612 267.711C202.815 266.389 203.066 265.102 203.414 263.835C204.309 260.565 205.494 257.622 207.076 255.074C208.565 252.683 210.244 250.687 212.227 249.379C212.698 249.065 213.126 248.663 213.487 248.077C213.606 247.88 213.769 247.757 213.905 247.607ZM198.867 212.707C199.55 214.417 200.193 215.977 200.806 217.564C201.083 218.293 201.334 219.063 201.55 219.853C202.934 224.874 203.392 230.126 203.101 235.563C203.092 235.672 202.991 235.767 202.881 235.965C202.815 235.324 202.74 234.773 202.7 234.214C202.449 230.699 201.828 227.347 200.867 224.145C200.25 222.074 199.638 219.996 199.039 217.905C198.091 214.594 197.616 211.126 197.629 207.495C197.629 207.127 197.699 206.787 197.981 206.548C198.598 207.052 199.211 207.672 199.841 208.231C201.074 209.328 201.96 210.942 202.766 212.686C203.696 214.703 204.22 216.978 204.538 219.39C205.062 223.368 205.119 227.333 204.361 231.271C204.317 231.496 204.313 231.83 204.04 231.809C204.027 231.598 204.009 231.394 204 231.189C203.85 228.621 203.679 226.066 203.247 223.566C202.678 220.269 201.806 217.237 200.339 214.669C200.004 214.083 199.678 213.483 199.325 212.925C199.246 212.802 199.087 212.809 198.867 212.707ZM202.744 277.814C202.705 277.63 202.639 277.473 202.665 277.392C203.154 275.702 203.656 274.019 204.317 272.466C205.34 270.075 206.49 267.82 207.737 265.715C208.732 264.019 209.689 262.275 210.596 260.469C211.275 259.114 211.945 257.737 212.517 256.273C213.571 253.582 214.483 250.775 214.923 247.662C214.989 247.205 214.963 246.66 215.346 246.292C215.747 248.99 215.981 251.654 215.681 254.372C215.478 256.211 215.179 257.996 214.646 259.699C214.06 261.587 213.408 263.385 212.376 264.761C211.645 265.735 210.874 266.655 210.081 267.513C209.063 268.624 207.983 269.584 207.018 270.824C205.6 272.664 204.207 274.523 203.198 276.976C203.079 277.269 202.907 277.514 202.744 277.814ZM224.921 205.554C225.199 205.71 225.26 206.058 225.287 206.398C225.397 207.815 225.516 209.232 225.582 210.656C225.652 212.223 225.542 213.783 225.388 215.336C225.26 216.617 224.939 217.796 224.613 218.988C223.784 222.047 222.454 224.492 220.753 226.4C219.215 228.117 217.532 229.466 215.747 230.453C214.276 231.271 212.782 231.986 211.293 232.729C211.235 232.756 211.143 232.613 211.002 232.497C211.244 232.231 211.451 231.973 211.676 231.755C212.923 230.528 214.174 229.309 215.421 228.083C216.355 227.163 217.276 226.23 218.118 225.085C219.858 222.721 221.502 220.228 222.722 217.142C223.37 215.493 223.934 213.783 224.176 211.848C224.436 209.757 224.842 207.706 224.921 205.554ZM209.601 231.775C209.949 230.624 210.358 229.956 210.799 229.357C212.35 227.224 213.875 225.037 215.487 223.021C217.611 220.364 219.519 217.387 221.295 214.178C222.163 212.598 222.85 210.827 223.555 209.062C223.604 209.13 223.656 209.171 223.652 209.212C223.656 210.445 223.454 211.63 223.145 212.741C222.282 215.861 221.022 218.566 219.453 220.936C217.994 223.144 216.417 225.092 214.677 226.741C213.103 228.226 211.504 229.656 210.081 231.503C210.015 231.591 209.913 231.605 209.601 231.775ZM215.122 182.657C215.241 181.853 215.307 181.138 215.452 180.463C215.765 179.046 216.197 177.711 216.844 176.573C217.131 176.076 217.452 175.708 217.937 175.49C218.179 175.579 218.484 175.681 218.796 175.797C219.18 176.859 219.14 177.847 218.73 178.842C218.409 179.632 218.091 180.395 217.638 181.029C216.985 181.928 216.377 182.902 215.884 184.033C215.421 185.096 214.981 186.179 214.522 187.249C213.923 188.659 213.258 189.987 212.368 191.029C212.213 190.519 212.337 190.13 212.465 189.756C213.011 188.189 213.584 186.649 214.095 185.062C214.359 184.231 214.61 183.406 215.122 182.657ZM211.923 188.175C211.817 187.119 212.02 186.165 212.196 185.218C212.866 181.601 213.015 177.936 212.76 174.209C212.685 173.079 212.68 171.934 212.672 170.803C212.672 170.537 212.799 170.258 213.148 170.326C213.579 170.912 213.848 171.798 214.064 172.731C214.663 175.361 214.483 178.065 214.315 180.756C214.289 181.165 214.135 181.56 214.029 181.955C213.945 182.282 213.839 182.602 213.751 182.929C213.253 184.762 212.641 186.499 211.923 188.175Z" fill="#2A3663"/>
</g>
</g>
</g>
</g>
<path d="M209.87 337.609C205.922 337.609 202.097 336.165 198.396 333.276C194.695 330.388 191.65 326.055 189.266 320.278C186.878 314.487 185.688 307.382 185.688 298.969C185.688 290.671 186.962 283.286 189.513 276.814C192.06 270.349 195.444 265.274 199.665 261.582C203.882 257.896 208.478 256.05 213.448 256.05C216.713 256.05 219.652 256.479 222.26 257.331C224.878 258.168 226.953 259.224 228.482 260.492C230.02 261.745 230.791 263.108 230.791 264.579C230.791 266.364 230.126 268.231 228.799 270.193C227.469 272.141 225.988 273.108 224.358 273.108C221.97 273.108 216.801 268.271 208.848 258.584C204.089 259.858 200.247 263.489 197.321 269.484C194.395 275.465 192.932 282.714 192.932 291.23C192.932 298.389 193.831 304.732 195.629 310.25C197.436 315.775 199.991 320.06 203.296 323.112C206.596 326.15 210.456 327.663 214.875 327.663C218.81 327.663 222.243 326.402 225.168 323.875C228.094 321.354 230.712 318.044 233.029 313.956L233.946 315.373C232.241 319.045 230.196 322.594 227.812 326.028C225.437 329.448 222.771 332.234 219.81 334.394C216.858 336.533 213.545 337.609 209.87 337.609Z" fill="#2A3663"/>
<path d="M91.3963 405.678C88.9376 405.732 86.6023 406.733 84.3815 408.675C82.1696 410.603 80.222 413.301 78.53 416.768C76.7896 420.222 75.4633 424.167 74.5468 428.595C73.6303 433.009 73.172 437.669 73.172 442.574C73.172 447.411 73.6303 452.05 74.5468 456.499C75.4633 460.954 76.7896 464.912 78.53 468.38C80.222 471.834 82.1696 474.511 84.3815 476.419C86.6023 478.312 88.9156 479.314 91.3258 479.443H91.4668C91.643 479.443 91.7752 479.443 91.8722 479.443C91.9074 479.443 91.9691 479.443 92.066 479.443C92.1586 479.443 92.2247 479.443 92.2599 479.443C95.7937 479.239 99.0147 477.304 101.918 473.612C104.818 469.906 107.034 464.987 108.563 458.842C108.598 458.699 108.66 458.624 108.757 458.624C108.849 458.624 108.898 458.699 108.898 458.842L110.625 465.982C110.669 466.057 110.669 466.132 110.625 466.2C108.391 470.471 105.664 473.823 102.447 476.255C99.2394 478.667 95.8642 479.907 92.3304 479.961H92.207C92.1101 479.961 91.9999 479.961 91.8722 479.961C91.7312 479.961 91.5725 479.961 91.3963 479.961C88.2238 479.907 85.1747 478.912 82.2489 476.991C79.3232 475.049 76.7587 472.317 74.5644 468.789C72.3304 465.266 70.6076 461.24 69.4003 456.717C68.2018 452.193 67.6025 447.479 67.6025 442.574C67.6025 437.669 68.2018 432.941 69.4003 428.377C70.6076 423.819 72.3304 419.779 74.5644 416.251C76.7587 412.783 79.3099 410.065 82.2137 408.103C85.113 406.141 88.1533 405.126 91.3258 405.051H91.5373C91.6166 405.051 91.7312 405.051 91.8722 405.051C91.9515 405.051 92.1057 405.051 92.3304 405.051C95.8642 405.18 99.2306 406.441 102.43 408.839C105.624 411.223 108.356 414.554 110.625 418.839C110.669 418.894 110.669 418.996 110.625 419.139L108.898 426.279C108.898 426.353 108.849 426.388 108.757 426.388C108.66 426.388 108.598 426.353 108.563 426.279C107.034 420.066 104.818 415.12 101.918 411.427C99.0147 407.721 95.8202 405.807 92.3304 405.678L92.207 405.569C92.1101 405.569 91.9999 405.569 91.8722 405.569C91.7312 405.569 91.5725 405.609 91.3963 405.678Z" fill="#2A3663"/>
<path d="M158.413 406.195C158.554 406.195 158.624 406.263 158.624 406.386C158.624 406.461 158.624 406.495 158.624 406.495C158.624 406.57 158.598 406.604 158.554 406.604C158.554 406.679 158.505 406.713 158.413 406.713H158.007C157.161 406.917 156.443 407.517 155.857 408.512C155.28 409.513 154.993 410.705 154.993 412.081V428.976C154.993 431.885 154.385 434.481 153.178 436.77C151.98 439.045 150.464 440.489 148.631 441.103C150.464 441.743 151.98 443.201 153.178 445.49C154.385 447.765 154.993 450.381 154.993 453.338V466.5C154.993 469.191 154.469 471.643 153.425 473.857C152.376 476.078 151.001 477.59 149.301 478.408H158.413C158.505 478.408 158.554 478.408 158.554 478.408C158.598 478.483 158.624 478.558 158.624 478.626C158.624 478.694 158.598 478.769 158.554 478.844C158.554 478.898 158.505 478.926 158.413 478.926H146.956C146.824 478.926 146.763 478.823 146.763 478.626C146.763 478.483 146.824 478.408 146.956 478.408C147.001 478.408 147.053 478.401 147.115 478.381C147.186 478.347 147.243 478.326 147.291 478.326C148.181 478.183 148.917 477.611 149.494 476.609C150.08 475.615 150.376 474.423 150.376 473.04V446.798C150.376 445.422 150.08 444.209 149.494 443.174C148.917 442.138 148.181 441.559 147.291 441.43C147.243 441.43 147.186 441.43 147.115 441.43C147.053 441.43 147.001 441.43 146.956 441.43H130.935C130.887 441.43 130.838 441.43 130.794 441.43C130.759 441.43 130.693 441.43 130.6 441.43C129.706 441.559 128.966 442.138 128.38 443.174C127.802 444.209 127.516 445.422 127.516 446.798V466.5C127.516 469.191 126.987 471.623 125.93 473.803C124.881 475.983 123.537 477.495 121.894 478.326H130.935C131.063 478.326 131.129 478.428 131.129 478.626C131.129 478.823 131.063 478.926 130.935 478.926H119.937C119.854 478.926 119.779 478.926 119.708 478.926C119.638 478.926 119.558 478.926 119.479 478.926C119.338 478.926 119.268 478.823 119.268 478.626C119.268 478.428 119.338 478.326 119.479 478.326H119.884C120.73 478.183 121.44 477.611 122.017 476.609C122.603 475.615 122.898 474.423 122.898 473.04V453.338C122.898 450.381 123.498 447.765 124.696 445.49C125.903 443.201 127.428 441.743 129.261 441.103C127.428 440.489 125.903 439.045 124.696 436.77C123.498 434.481 122.898 431.885 122.898 428.976V418.621C122.898 415.862 123.418 413.389 124.467 411.209C125.511 409.029 126.886 407.531 128.591 406.713H119.479C119.338 406.713 119.268 406.604 119.268 406.386C119.268 406.263 119.338 406.195 119.479 406.195H130.935C131.063 406.195 131.129 406.263 131.129 406.386C131.129 406.604 131.063 406.713 130.935 406.713C130.887 406.713 130.838 406.713 130.794 406.713C130.759 406.713 130.693 406.713 130.6 406.713C129.706 406.843 128.966 407.422 128.38 408.457C127.802 409.493 127.516 410.705 127.516 412.081V435.516C127.516 436.899 127.802 438.091 128.38 439.086C128.966 440.088 129.706 440.66 130.6 440.803C130.693 440.803 130.759 440.823 130.794 440.857C130.838 440.898 130.887 440.912 130.935 440.912H146.956C147.001 440.912 147.053 440.898 147.115 440.857C147.186 440.823 147.243 440.803 147.291 440.803C148.181 440.66 148.917 440.088 149.494 439.086C150.08 438.091 150.376 436.899 150.376 435.516V418.621C150.376 415.937 150.896 413.485 151.944 411.264C153.002 409.05 154.35 407.531 155.998 406.713H146.956C146.824 406.713 146.763 406.645 146.763 406.495C146.763 406.298 146.824 406.195 146.956 406.195H157.954C158.034 406.195 158.117 406.195 158.201 406.195C158.294 406.195 158.364 406.195 158.413 406.195Z" fill="#2A3663"/>
<path d="M213.974 478.326C214.066 478.326 214.115 478.428 214.115 478.626C214.115 478.823 214.066 478.926 213.974 478.926H202.447C202.315 478.926 202.253 478.823 202.253 478.626C202.253 478.428 202.315 478.326 202.447 478.326C203.117 478.326 203.698 477.965 204.192 477.236C204.685 476.514 204.932 475.594 204.932 474.484C204.884 473.796 204.773 473.169 204.597 472.604L188.1 414.37L177.243 455.218H193.67C193.797 455.218 193.863 455.32 193.863 455.518C193.863 455.722 193.797 455.818 193.67 455.818H177.049L173.154 470.451C173.154 470.505 173.154 470.533 173.154 470.533C173.106 470.607 173.106 470.607 173.154 470.533L171.409 476.855C171.409 477.004 171.365 477.073 171.286 477.073C171.237 477.073 171.215 477.073 171.215 477.073C171.074 477.004 171.026 476.868 171.074 476.664L171.885 473.748C170.722 476.037 169.246 477.563 167.461 478.326H176.45C176.578 478.326 176.644 478.428 176.644 478.626C176.644 478.823 176.578 478.926 176.45 478.926H164.976C164.928 478.926 164.888 478.898 164.853 478.844C164.804 478.769 164.782 478.694 164.782 478.626C164.782 478.558 164.804 478.483 164.853 478.408C164.888 478.353 164.928 478.326 164.976 478.326C166.677 478.326 168.241 477.604 169.664 476.146C171.096 474.695 172.149 472.76 172.819 470.342L190.109 405.569L190.18 405.242C190.18 405.187 190.202 405.16 190.25 405.16C190.294 405.092 190.361 405.051 190.444 405.051C190.444 405.126 190.444 405.16 190.444 405.16C190.488 405.16 190.515 405.187 190.515 405.242L207.752 466.091C208.104 467.256 208.281 468.502 208.281 469.824C208.281 471.752 207.933 473.496 207.241 475.056C206.545 476.602 205.619 477.692 204.456 478.326H213.974Z" fill="#2A3663"/>
<path d="M264.11 406.195C264.19 406.195 264.234 406.195 264.234 406.195C264.278 406.27 264.304 406.332 264.304 406.386C264.304 406.604 264.238 406.713 264.11 406.713C262.63 406.713 261.317 407.633 260.18 409.465C259.039 411.284 258.47 413.403 258.47 415.815V478.626C258.47 478.823 258.426 478.926 258.347 478.926H256.532C256.483 478.926 256.444 478.898 256.408 478.844L227.045 418.213C226.82 417.722 226.64 417.245 226.499 416.768V476.255C226.499 476.385 226.433 476.446 226.305 476.446C226.256 476.446 226.208 476.412 226.164 476.337C226.164 476.337 226.164 476.31 226.164 476.255V472.413C225.494 475.247 224.243 477.222 222.41 478.326H231.998C232.139 478.326 232.209 478.428 232.209 478.626C232.209 478.823 232.139 478.926 231.998 478.926H220.471C220.422 478.926 220.4 478.898 220.4 478.844C220.365 478.769 220.348 478.694 220.348 478.626C220.348 478.558 220.365 478.483 220.4 478.408C220.4 478.353 220.422 478.326 220.471 478.326C221.987 478.326 223.313 477.427 224.454 475.628C225.591 473.83 226.164 471.725 226.164 469.306V415.215C226.164 415.147 226.164 415.106 226.164 415.106C226.129 414.616 226.111 414.139 226.111 413.662C226.111 412.136 226.384 410.739 226.939 409.465C227.503 408.178 228.23 407.258 229.125 406.713H219.466C219.334 406.713 219.272 406.604 219.272 406.386C219.272 406.263 219.334 406.195 219.466 406.195H230.923C231.064 406.195 231.134 406.263 231.134 406.386C231.134 406.604 231.064 406.713 230.923 406.713C230.438 406.713 230.006 406.999 229.618 407.558C229.239 408.103 229.054 408.784 229.054 409.602C229.098 410.296 229.235 410.882 229.46 411.373L258.136 470.533V408.893C258.136 408.675 258.18 408.566 258.277 408.566C258.404 408.566 258.47 408.675 258.47 408.893V412.708C259.14 409.82 260.392 407.824 262.225 406.713H252.654C252.513 406.713 252.443 406.604 252.443 406.386C252.443 406.263 252.513 406.195 252.654 406.195H264.11Z" fill="#2A3663"/>
<path d="M307.061 406.195C307.202 406.195 307.273 406.263 307.273 406.386C307.273 406.604 307.202 406.713 307.061 406.713H300.099C301.038 407.258 301.774 408.178 302.302 409.465C302.84 410.739 303.113 412.136 303.113 413.662C303.157 415.099 302.91 416.407 302.373 417.586L277.645 474.075C277.469 474.552 277.354 475.07 277.31 475.628C277.31 476.391 277.486 477.039 277.839 477.563C278.2 478.074 278.623 478.326 279.108 478.326H289.313C292.706 478.326 295.327 477.985 297.173 477.291C299.028 476.603 300.368 475.792 301.192 474.865C302.025 473.925 302.554 473.067 302.778 472.304C302.822 472.236 302.871 472.161 302.919 472.086C302.954 472.086 302.994 472.086 303.043 472.086C303.087 472.161 303.113 472.236 303.113 472.304C303.157 472.379 303.157 472.454 303.113 472.522L301.174 478.735C301.174 478.857 301.126 478.926 301.033 478.926H270.331C270.282 478.926 270.242 478.898 270.207 478.844C270.159 478.769 270.137 478.694 270.137 478.626C270.137 478.558 270.159 478.483 270.207 478.408C270.242 478.353 270.282 478.326 270.331 478.326H277.31C276.367 477.767 275.627 476.868 275.089 475.628C274.561 474.375 274.296 472.999 274.296 471.486C274.248 470.035 274.472 468.68 274.966 467.426L299.694 411.046C299.914 410.576 300.051 410.031 300.099 409.411C300.099 408.648 299.914 408.014 299.553 407.503C299.2 406.979 298.777 406.713 298.284 406.713H288.097C284.699 406.713 282.073 407.061 280.218 407.749C278.359 408.443 277.019 409.268 276.2 410.228C275.376 411.196 274.851 412.054 274.631 412.817C274.583 412.892 274.512 412.926 274.42 412.926C274.42 412.926 274.393 412.926 274.349 412.926C274.314 412.858 274.296 412.783 274.296 412.708C274.248 412.64 274.248 412.572 274.296 412.517L276.235 406.304C276.235 406.236 276.279 406.195 276.376 406.195H307.061Z" fill="#2A3663"/>
<path d="M344.729 472.086C344.773 472.161 344.822 472.236 344.87 472.304C344.87 472.379 344.87 472.454 344.87 472.522L342.914 478.735C342.878 478.803 342.861 478.844 342.861 478.844C342.812 478.898 342.764 478.926 342.72 478.926H314.696C314.612 478.926 314.537 478.926 314.467 478.926C314.396 478.926 314.317 478.926 314.238 478.926C314.097 478.926 314.026 478.823 314.026 478.626C314.026 478.428 314.097 478.326 314.238 478.326H314.643C315.489 478.183 316.199 477.611 316.776 476.609C317.362 475.615 317.657 474.423 317.657 473.04V453.338C317.657 450.381 318.256 447.765 319.455 445.49C320.662 443.201 322.187 441.743 324.02 441.103C322.187 440.489 320.662 439.045 319.455 436.77C318.256 434.481 317.657 431.885 317.657 428.976V418.621C317.657 415.862 318.177 413.389 319.226 411.209C320.27 409.029 321.645 407.531 323.35 406.713H314.238C314.097 406.713 314.026 406.604 314.026 406.386C314.026 406.263 314.097 406.195 314.238 406.195H341.38C341.38 406.195 341.402 406.195 341.451 406.195C341.495 406.27 341.521 406.304 341.521 406.304L343.46 412.517C343.46 412.572 343.46 412.64 343.46 412.708C343.46 412.783 343.434 412.858 343.39 412.926C343.341 412.926 343.319 412.926 343.319 412.926C343.235 412.926 343.169 412.892 343.125 412.817C342.76 411.639 341.737 410.603 340.058 409.711C338.389 408.825 336.291 408.103 333.766 407.558C331.237 406.999 328.549 406.713 325.694 406.713C325.646 406.713 325.588 406.713 325.518 406.713C325.456 406.713 325.403 406.713 325.359 406.713C324.465 406.843 323.725 407.422 323.138 408.457C322.561 409.493 322.275 410.705 322.275 412.081V435.516C322.275 436.899 322.561 438.091 323.138 439.086C323.725 440.088 324.465 440.66 325.359 440.803C325.403 440.803 325.456 440.823 325.518 440.857C325.588 440.898 325.646 440.912 325.694 440.912H331.863C331.991 440.912 332.057 440.98 332.057 441.103C332.057 441.321 331.991 441.43 331.863 441.43H325.694C325.646 441.43 325.588 441.43 325.518 441.43C325.456 441.43 325.403 441.43 325.359 441.43C324.465 441.559 323.725 442.138 323.138 443.174C322.561 444.209 322.275 445.422 322.275 446.798V466.5C322.275 469.191 321.746 471.623 320.689 473.803C319.64 475.983 318.296 477.495 316.652 478.326H327.104C329.959 478.326 332.647 478.054 335.176 477.509C337.701 476.95 339.799 476.221 341.468 475.329C343.147 474.423 344.17 473.414 344.535 472.304C344.57 472.106 344.632 472.031 344.729 472.086Z" fill="#2A3663"/>
<path d="M379.782 472.086C379.826 472.161 379.875 472.236 379.923 472.304C379.923 472.379 379.923 472.454 379.923 472.522L377.967 478.735C377.918 478.803 377.896 478.844 377.896 478.844C377.861 478.898 377.817 478.926 377.773 478.926H352.974C352.877 478.926 352.798 478.926 352.728 478.926C352.666 478.926 352.591 478.926 352.499 478.926C352.366 478.926 352.305 478.823 352.305 478.626C352.305 478.428 352.366 478.326 352.499 478.326H352.904C353.75 478.183 354.459 477.611 355.037 476.609C355.623 475.615 355.918 474.423 355.918 473.04V418.621C355.918 415.862 356.438 413.389 357.486 411.209C358.544 409.029 359.919 407.531 361.611 406.713H352.499C352.366 406.713 352.305 406.604 352.305 406.386C352.305 406.263 352.366 406.195 352.499 406.195H363.955C364.047 406.195 364.096 406.195 364.096 406.195C364.14 406.27 364.166 406.332 364.166 406.386C364.166 406.461 364.14 406.536 364.096 406.604C364.096 406.679 364.047 406.713 363.955 406.713C363.92 406.713 363.867 406.713 363.796 406.713C363.726 406.713 363.664 406.713 363.62 406.713C362.725 406.843 361.985 407.422 361.399 408.457C360.822 409.493 360.536 410.705 360.536 412.081V466.5C360.536 469.191 360.011 471.623 358.967 473.803C357.918 475.983 356.57 477.495 354.913 478.326H362.157C365.012 478.326 367.7 478.054 370.229 477.509C372.754 476.95 374.851 476.221 376.521 475.329C378.2 474.423 379.222 473.414 379.588 472.304C379.588 472.236 379.606 472.161 379.641 472.086C379.685 472.086 379.734 472.086 379.782 472.086Z" fill="#2A3663"/>
<path d="M129.468 526.868C128.446 526.868 127.517 526.527 126.684 525.832C125.86 525.124 125.212 524.156 124.745 522.917C124.287 521.663 124.058 520.266 124.058 518.72C124.058 517.18 124.287 515.791 124.745 514.551C125.212 513.297 125.864 512.33 126.701 511.635C127.534 510.927 128.464 510.572 129.486 510.572C130.248 510.572 130.953 510.777 131.601 511.172C132.258 511.574 132.817 512.153 133.275 512.916L132.588 513.979C131.777 512.711 130.755 512.071 129.521 512.071C128.697 512.071 127.953 512.364 127.283 512.943C126.613 513.529 126.084 514.326 125.697 515.341C125.318 516.342 125.133 517.467 125.133 518.72C125.133 519.974 125.318 521.111 125.697 522.126C126.084 523.128 126.613 523.918 127.283 524.497C127.953 525.083 128.697 525.369 129.521 525.369C130.755 525.369 131.777 524.729 132.588 523.434L133.275 524.524C132.817 525.287 132.258 525.873 131.601 526.268C130.953 526.67 130.244 526.868 129.468 526.868Z" fill="#2A3663"/>
<path d="M138.315 510.708H139.408V525.26H145.207V526.731H138.315V510.708Z" fill="#2A3663"/>
<path d="M154.261 526.868C153.225 526.868 152.291 526.514 151.458 525.805C150.621 525.097 149.969 524.129 149.502 522.889C149.044 521.656 148.814 520.266 148.814 518.72C148.814 517.18 149.044 515.791 149.502 514.551C149.969 513.318 150.621 512.344 151.458 511.635C152.291 510.927 153.225 510.572 154.261 510.572C155.283 510.572 156.204 510.927 157.028 511.635C157.847 512.33 158.495 513.297 158.966 514.551C159.447 515.791 159.689 517.18 159.689 518.72C159.689 520.266 159.447 521.663 158.966 522.917C158.495 524.156 157.847 525.124 157.028 525.832C156.204 526.527 155.283 526.868 154.261 526.868ZM154.261 525.369C155.08 525.369 155.82 525.09 156.481 524.524C157.138 523.945 157.653 523.148 158.032 522.126C158.407 521.111 158.596 519.974 158.596 518.72C158.596 517.467 158.407 516.336 158.032 515.314C157.653 514.299 157.138 513.508 156.481 512.943C155.82 512.364 155.08 512.071 154.261 512.071C153.437 512.071 152.692 512.364 152.022 512.943C151.361 513.508 150.841 514.299 150.454 515.314C150.075 516.336 149.89 517.467 149.89 518.72C149.89 519.974 150.075 521.111 150.454 522.126C150.841 523.148 151.361 523.945 152.022 524.524C152.692 525.09 153.437 525.369 154.261 525.369Z" fill="#2A3663"/>
<path d="M166.858 512.18H163.21V510.708H171.599V512.18H167.951V526.731H166.858V512.18Z" fill="#2A3663"/>
<path d="M184.697 510.708V526.731H183.622V519.346H177.136V526.731H176.043V510.708H177.136V517.848H183.622V510.708H184.697Z" fill="#2A3663"/>
<path d="M190.775 510.708H191.868V526.731H190.775V510.708Z" fill="#2A3663"/>
<path d="M206.596 510.708V526.731H205.697L199.035 513.733V526.731H197.942V510.708H198.841L205.521 523.706V510.708H206.596Z" fill="#2A3663"/>
<path d="M219.971 518.72H221.029V524.824C220.535 525.478 219.958 525.989 219.301 526.35C218.64 526.697 217.949 526.868 217.222 526.868C216.173 526.868 215.234 526.527 214.402 525.832C213.578 525.124 212.93 524.156 212.463 522.917C211.991 521.663 211.758 520.266 211.758 518.72C211.758 517.18 211.991 515.791 212.463 514.551C212.93 513.297 213.578 512.33 214.402 511.635C215.234 510.927 216.173 510.572 217.222 510.572C218.019 510.572 218.746 510.777 219.407 511.172C220.064 511.553 220.623 512.126 221.081 512.889L220.394 513.951C219.583 512.698 218.543 512.071 217.274 512.071C216.437 512.071 215.679 512.364 215.001 512.943C214.331 513.508 213.802 514.299 213.415 515.314C213.027 516.336 212.833 517.467 212.833 518.72C212.833 519.974 213.027 521.111 213.415 522.126C213.802 523.128 214.331 523.918 215.001 524.497C215.671 525.083 216.42 525.369 217.257 525.369C218.323 525.369 219.231 524.953 219.971 524.116V518.72Z" fill="#2A3663"/>
<path d="M236.245 526.868C235.469 526.868 234.729 526.677 234.024 526.296C233.319 525.914 232.773 525.417 232.385 524.797L232.825 523.489C233.2 524.075 233.698 524.545 234.324 524.906C234.945 525.253 235.584 525.424 236.245 525.424C237.17 525.424 237.866 525.165 238.324 524.633C238.791 524.109 239.029 523.427 239.029 522.59C239.029 521.956 238.897 521.445 238.642 521.064C238.395 520.682 238.086 520.396 237.725 520.192C237.359 519.974 236.848 519.749 236.192 519.51C235.416 519.204 234.791 518.911 234.324 518.638C233.865 518.352 233.469 517.916 233.143 517.33C232.812 516.751 232.649 515.961 232.649 514.96C232.649 514.162 232.781 513.434 233.055 512.78C233.337 512.112 233.76 511.574 234.324 511.172C234.896 510.777 235.61 510.572 236.456 510.572C237.055 510.572 237.637 510.702 238.201 510.954C238.765 511.213 239.259 511.553 239.682 511.989L239.311 513.352C238.875 512.902 238.413 512.562 237.919 512.344C237.426 512.126 236.936 512.017 236.456 512.017C235.548 512.017 234.87 512.289 234.412 512.834C233.953 513.379 233.724 514.081 233.724 514.932C233.724 515.573 233.848 516.09 234.094 516.486C234.35 516.867 234.667 517.16 235.046 517.358C235.434 517.562 235.945 517.787 236.58 518.039C237.342 518.332 237.959 518.625 238.43 518.911C238.897 519.183 239.294 519.612 239.611 520.192C239.937 520.757 240.105 521.527 240.105 522.508C240.105 523.312 239.964 524.047 239.682 524.715C239.4 525.369 238.963 525.9 238.377 526.296C237.8 526.677 237.091 526.868 236.245 526.868Z" fill="#2A3663"/>
<path d="M247.2 512.18H243.552V510.708H251.941V512.18H248.293V526.731H247.2V512.18Z" fill="#2A3663"/>
<path d="M260.914 526.868C259.878 526.868 258.944 526.514 258.112 525.805C257.274 525.097 256.622 524.129 256.155 522.889C255.697 521.656 255.468 520.266 255.468 518.72C255.468 517.18 255.697 515.791 256.155 514.551C256.622 513.318 257.274 512.344 258.112 511.635C258.944 510.927 259.878 510.572 260.914 510.572C261.936 510.572 262.857 510.927 263.681 511.635C264.501 512.33 265.148 513.297 265.62 514.551C266.1 515.791 266.342 517.18 266.342 518.72C266.342 520.266 266.1 521.663 265.62 522.917C265.148 524.156 264.501 525.124 263.681 525.832C262.857 526.527 261.936 526.868 260.914 526.868ZM260.914 525.369C261.733 525.369 262.474 525.09 263.135 524.524C263.791 523.945 264.307 523.148 264.686 522.126C265.06 521.111 265.25 519.974 265.25 518.72C265.25 517.467 265.06 516.336 264.686 515.314C264.307 514.299 263.791 513.508 263.135 512.943C262.474 512.364 261.733 512.071 260.914 512.071C260.09 512.071 259.345 512.364 258.676 512.943C258.015 513.508 257.495 514.299 257.107 515.314C256.728 516.336 256.543 517.467 256.543 518.72C256.543 519.974 256.728 521.111 257.107 522.126C257.495 523.148 258.015 523.945 258.676 524.524C259.345 525.09 260.09 525.369 260.914 525.369Z" fill="#2A3663"/>
<path d="M278.57 526.731L276.208 521.581C275.935 521.635 275.661 521.663 275.379 521.663H272.595V526.731H271.502V510.708H275.379C276.693 510.708 277.728 511.199 278.481 512.18C279.231 513.161 279.609 514.509 279.609 516.213C279.609 517.452 279.402 518.502 278.993 519.374C278.578 520.232 277.997 520.845 277.248 521.227L279.768 526.731H278.57ZM275.344 520.218C276.375 520.218 277.164 519.864 277.706 519.156C278.244 518.447 278.517 517.466 278.517 516.213C278.517 514.905 278.244 513.91 277.706 513.215C277.164 512.527 276.375 512.18 275.344 512.18H272.595V520.218H275.344Z" fill="#2A3663"/>
<path d="M292.234 525.26V526.731H284.902V510.708H292.005V512.18H285.995V517.875H291.353V519.319H285.995V525.26H292.234Z" fill="#2A3663"/>
</svg>
